<mxfile host="app.diagrams.net" modified="2022-09-26T05:42:07.832Z" agent="5.0 (Windows NT 10.0; Win64; x64) AppleWebKit/537.36 (KHTML, like Gecko) Chrome/105.0.0.0 Safari/537.36" etag="0tR5Lx2E0fXXzRnSJQmE" version="20.3.6" type="github">
  <diagram id="7zGOvlO_Lh0yQemsiawO" name="Trang-1">
    <mxGraphModel dx="1564" dy="936" grid="1" gridSize="10" guides="1" tooltips="1" connect="1" arrows="1" fold="1" page="1" pageScale="1" pageWidth="1654" pageHeight="2336" math="0" shadow="0">
      <root>
        <mxCell id="0" />
        <mxCell id="1" parent="0" />
      </root>
    </mxGraphModel>
  </diagram>
</mxfile>
